<svg width="770" height="711" fill="none" xmlns="http://www.w3.org/2000/svg"><path fill-rule="evenodd" clip-rule="evenodd" d="M342.849 17.4C171.076-26.95 92.249 8.24 43.372 184.008l-25.315 91.036C-21.956 418.94.42 495.146 126.8 543.547l7.99 28.582c34.935 124.974 88.636 161.413 226.337 126.046l178.302-45.794c19.216-4.936 36.411-10.273 51.643-16.217 65.45-16.944 105.985-71.829 135.556-178.172l25.315-91.036c46.026-165.519 9.505-241.477-172.903-288.573L342.849 17.4z" fill="#fff"/><path fill-rule="evenodd" clip-rule="evenodd" d="M342.849 17.4C171.076-26.95 92.249 8.24 43.372 184.008l-25.315 91.036C-21.956 418.94.42 495.146 126.8 543.547l7.99 28.582c34.935 124.974 88.636 161.413 226.337 126.046l178.302-45.794c19.216-4.936 36.411-10.273 51.643-16.217 65.45-16.944 105.985-71.829 135.556-178.172l25.315-91.036c46.026-165.519 9.505-241.477-172.903-288.573L342.849 17.4z" fill="#fff"/><path fill-rule="evenodd" clip-rule="evenodd" d="M342.849 17.4C171.076-26.95 92.249 8.24 43.372 184.008l-25.315 91.036C-21.956 418.94.42 495.146 126.8 543.547l7.99 28.582c34.935 124.974 88.636 161.413 226.337 126.046l178.302-45.794c19.216-4.936 36.411-10.273 51.643-16.217 65.45-16.944 105.985-71.829 135.556-178.172l25.315-91.036c46.026-165.519 9.505-241.477-172.903-288.573L342.849 17.4z" fill="url(#paint0_linear_312_405)" fill-opacity=".16"/><defs><linearGradient id="paint0_linear_312_405" x1="-54.717" y1="691.343" x2="915.89" y2="522.507" gradientUnits="userSpaceOnUse"><stop stop-color="#53E8A8"/><stop offset=".516" stop-color="#A3FAA6"/><stop offset="1" stop-color="#BEFEAA"/></linearGradient></defs></svg>