<svg width="65" height="64" fill="none" xmlns="http://www.w3.org/2000/svg"><mask id="a" style="mask-type:luminance" maskUnits="userSpaceOnUse" x="2" y="5" width="60" height="54"><path d="M61.495 5.106H2.367v53.65h59.128V5.105z" fill="#fff"/></mask><g mask="url(#a)" fill="#2BAD72"><path fill-rule="evenodd" clip-rule="evenodd" d="M17.537 51.848c5.416 4.4 11.673 6.907 18.346 6.907 9.923 0 18.93-5.561 25.615-14.62-2.822-3.823-6.057-7.026-9.605-9.447l-5.695 2.843a12.176 12.176 0 011.937 6.605c0 6.758-5.484 12.237-12.252 12.237-5.259 0-9.742-3.31-11.48-7.956l-6.866 3.428v.003zm14.13-7.056a4.255 4.255 0 004.216 3.604 4.263 4.263 0 004.266-4.26 4.25 4.25 0 00-1.21-2.975l-7.269 3.631h-.003z"/><path d="M19.088 44.04L60.6 24.084 51.477 5.106l-4.712 16.77-5.663-11.782-4.714 16.771-5.663-11.783-4.715 16.771-5.663-11.783-4.715 16.772L9.97 25.059l-7.603 27.02 10.378-4.988 6.343-3.048v-.003z"/></g></svg>