<svg width="187" height="30" fill="none" xmlns="http://www.w3.org/2000/svg"><path fill-rule="evenodd" clip-rule="evenodd" d="M15.438.813C7.703-1.259 4.154.385 1.953 8.598l-1.14 4.254c-2.072 7.735-.428 11.285 7.785 13.485l10.636 2.85c7.734 2.072 11.283.428 13.484-7.786l1.14-4.253c2.073-7.735.428-11.284-7.785-13.485L15.438.813zm16.39 9.12a3.303 3.303 0 11-6.38 1.71 3.303 3.303 0 016.38-1.71zm-12.762 3.42a3.303 3.303 0 11-6.38 1.71 3.303 3.303 0 016.38-1.71zm7.24 4.899c.282-.076.423-.114.572-.07a.64.64 0 01.313.242c.081.133.08.246.08.47a3.304 3.304 0 01-6.157 1.65c-.114-.194-.17-.291-.167-.447a.64.64 0 01.15-.365c.108-.113.248-.151.53-.227l4.68-1.253z" fill="#66F88F"/><path fill-rule="evenodd" clip-rule="evenodd" d="M15.438.813C7.703-1.259 4.154.385 1.953 8.598l-1.14 4.254c-2.072 7.735-.428 11.285 7.785 13.485l10.636 2.85c7.734 2.072 11.283.428 13.484-7.786l1.14-4.253c2.073-7.735.428-11.284-7.785-13.485L15.438.813zm16.39 9.12a3.303 3.303 0 11-6.38 1.71 3.303 3.303 0 016.38-1.71zm-12.762 3.42a3.303 3.303 0 11-6.38 1.71 3.303 3.303 0 016.38-1.71zm7.24 4.899c.282-.076.423-.114.572-.07a.64.64 0 01.313.242c.081.133.08.246.08.47a3.304 3.304 0 01-6.157 1.65c-.114-.194-.17-.291-.167-.447a.64.64 0 01.15-.365c.108-.113.248-.151.53-.227l4.68-1.253z" fill="url(#paint0_linear_312_64)"/><path d="M45.614 24.495V8.305h11.03c1.987 0 3.572.535 4.753 1.603 1.182 1.07 1.773 2.51 1.773 4.324 0 1.784-.606 3.203-1.818 4.257-1.204 1.046-2.833 1.569-4.888 1.569H50.31v4.437h-4.697zM55.72 11.94h-5.41v4.482h5.408c1.776 0 2.664-.723 2.664-2.168 0-1.543-.888-2.314-2.664-2.314zm19.054 12.815c-3.296 0-5.882-.742-7.756-2.225-1.874-1.49-2.811-3.526-2.811-6.107 0-2.605.933-4.648 2.8-6.13 1.874-1.491 4.463-2.236 7.767-2.236 3.29 0 5.867.745 7.734 2.235 1.874 1.483 2.81 3.526 2.81 6.13 0 2.575-.936 4.607-2.81 6.097-1.867 1.49-4.445 2.236-7.734 2.236zm0-3.704c3.824 0 5.735-1.542 5.735-4.628 0-3.109-1.911-4.663-5.735-4.663-3.838 0-5.758 1.554-5.758 4.663 0 3.086 1.92 4.628 5.758 4.628zm12.858 3.444V8.305h16.054v3.545H92.26v2.676h10.037v3.477H92.26v2.958h11.629v3.534H87.632zm18.728 0V8.305h12.17c1.754 0 3.131.373 4.132 1.118 1.001.738 1.502 1.761 1.502 3.07a3.43 3.43 0 01-.7 2.123c-.467.617-1.163 1.122-2.089 1.513 1.107.301 1.953.787 2.54 1.456.588.67.881 1.48.881 2.428 0 1.415-.523 2.517-1.569 3.308-1.046.782-2.507 1.174-4.381 1.174H106.36zm11.267-12.837h-6.661v3.037h6.661c1.264 0 1.897-.511 1.897-1.535 0-1.001-.633-1.502-1.897-1.502zm.373 6.39h-7.034v3.094h6.988c1.34 0 2.01-.5 2.01-1.502 0-1.061-.655-1.592-1.964-1.592zm18.378 6.707c-3.297 0-5.882-.742-7.756-2.225-1.874-1.49-2.811-3.526-2.811-6.107 0-2.605.933-4.648 2.799-6.13 1.874-1.491 4.464-2.236 7.768-2.236 3.289 0 5.867.745 7.733 2.235 1.874 1.483 2.811 3.526 2.811 6.13 0 2.575-.937 4.607-2.811 6.097-1.866 1.49-4.444 2.236-7.733 2.236zm0-3.704c3.823 0 5.735-1.542 5.735-4.628 0-3.109-1.912-4.663-5.735-4.663-3.839 0-5.758 1.554-5.758 4.663 0 3.086 1.919 4.628 5.758 4.628zm17.633 3.444V12.008h-6.706V8.305h18.176v3.703h-6.774v12.487h-4.696zm21.81.26c-3.297 0-5.882-.742-7.756-2.225-1.874-1.49-2.811-3.526-2.811-6.107 0-2.605.933-4.648 2.8-6.13 1.874-1.491 4.463-2.236 7.767-2.236 3.289 0 5.867.745 7.734 2.235 1.874 1.483 2.811 3.526 2.811 6.13 0 2.575-.937 4.607-2.811 6.097-1.867 1.49-4.445 2.236-7.734 2.236zm0-3.704c3.824 0 5.735-1.542 5.735-4.628 0-3.109-1.911-4.663-5.735-4.663-3.838 0-5.758 1.554-5.758 4.663 0 3.086 1.92 4.628 5.758 4.628z" fill="#F5F5F5"/><defs><linearGradient id="paint0_linear_312_64" x1="1.236" y1="26.808" x2="36.705" y2="20.471" gradientUnits="userSpaceOnUse"><stop stop-color="#53E8A8"/><stop offset=".516" stop-color="#A3FAA6"/><stop offset="1" stop-color="#BEFEAA"/></linearGradient></defs></svg>