<svg width="84" height="23" fill="none" xmlns="http://www.w3.org/2000/svg"><path d="M35.838 6.744a4.713 4.713 0 00-1.383-.185h-.009c-2.552.005-3 2.336-3 2.336V6.693H28.75V17.25h2.695v-4.133c0-.961.39-1.967 1.013-2.727.633-.769 1.372-1.136 1.997-1.136.535 0 .726.1.822.195.104.103.391.498.391 1.781v6.02h2.695v-4.133c0-.961.39-1.967 1.013-2.727.632-.769 1.372-1.136 1.997-1.136.535 0 .726.1.822.195.104.103.39.498.39 1.781v6.02h2.696v-6.02c0-1.59-.342-2.858-1.192-3.698-.86-.85-1.948-.973-2.716-.973-.47 0-.923.074-1.352.208-1.644.573-2.332 2.128-2.332 2.128s-.092-1.598-1.851-2.15z" fill="#fff"/><path fill-rule="evenodd" clip-rule="evenodd" d="M55.164 8.176V6.559h2.695V17.25h-2.695v-1.393s-.442.995-1.846 1.424a4.7 4.7 0 01-1.298.181c-2.829 0-5.122-2.5-5.122-5.586 0-3.07 2.27-5.56 5.077-5.587 2.479.023 3.19 1.887 3.19 1.887zm-2.586 6.865c1.594 0 2.887-1.417 2.887-3.165 0-1.749-1.293-3.166-2.887-3.166s-2.886 1.417-2.886 3.166c0 1.748 1.292 3.165 2.886 3.165zm15.254-6.865V6.559h2.695v6.615h-.857.857v4.166c0 1.352-.493 2.45-1.375 3.217-.836.728-1.901 1.054-2.898 1.17-1.962.23-4.206-.288-5.56-1.06l1.338-2.341c.848.485 2.512.888 3.908.724.682-.08 1.159-.279 1.444-.527.239-.208.448-.536.448-1.183v-1.483s-.442.995-1.846 1.424c-.415.119-.85.181-1.299.181-2.828 0-5.12-2.5-5.12-5.586 0-3.07 2.268-5.56 5.076-5.587 2.479.023 3.189 1.887 3.189 1.887zm-2.586 6.865c1.594 0 2.887-1.417 2.887-3.165 0-1.749-1.293-3.166-2.887-3.166s-2.886 1.417-2.886 3.166c0 1.748 1.292 3.165 2.886 3.165zm12.648 2.421c2.025 0 3.4-.87 4.235-2.255l-1.919-1.305c-.461.675-1.212 1.102-2.27 1.102-1.54 0-2.43-.904-2.722-2.156h7.76c.057-.315.1-.64.128-.972 0-3.176-2.024-5.587-5.212-5.587-3.008 0-5.3 2.501-5.3 5.587 0 3.085 2.293 5.586 5.3 5.586zm2.775-6.59c-.272-1.253-1.118-2.157-2.73-2.157-1.61 0-2.457.904-2.73 2.156h5.46zM11.5 0C2.218 0 0 2.218 0 11.5S2.218 23 11.5 23 23 20.782 23 11.5 20.782 0 11.5 0zm0 3.234c.4 0 .744.284.82.677l.89 4.611c.1.515.15.772.323.945.173.174.43.223.945.323l4.611.89a.834.834 0 010 1.64l-4.611.89c-.515.1-.772.15-.945.323-.174.173-.223.43-.323.945l-.89 4.611a.834.834 0 01-1.64 0l-.89-4.611c-.1-.515-.15-.772-.323-.945-.173-.174-.43-.223-.945-.323l-4.611-.89a.835.835 0 010-1.64l4.611-.89c.515-.1.772-.15.945-.323.174-.173.223-.43.323-.945l.89-4.611a.835.835 0 01.82-.677z" fill="#fff"/></svg>