<svg width="24" height="24" fill="none" xmlns="http://www.w3.org/2000/svg"><g clip-path="url(#clip0_312_484)"><path d="M23.873 17.886a1.537 1.537 0 00-.082-.15c-.416-.72-1.212-1.606-2.386-2.655l-.025-.024-.012-.011-.013-.012h-.013c-.533-.489-.87-.817-1.012-.986-.258-.32-.316-.644-.175-.973.1-.248.475-.772 1.125-1.573.341-.424.612-.764.812-1.02 1.441-1.842 2.066-3.02 1.874-3.532l-.074-.12c-.05-.071-.18-.137-.387-.198-.209-.06-.475-.07-.8-.03l-3.599.024a.485.485 0 00-.25.006l-.163.037-.062.03-.05.036a.548.548 0 00-.137.126.814.814 0 00-.125.21 19.25 19.25 0 01-1.337 2.702c-.308.497-.592.927-.85 1.291a6.257 6.257 0 01-.65.805c-.175.172-.333.31-.475.414-.141.105-.25.149-.324.133a9.365 9.365 0 01-.213-.049.812.812 0 01-.281-.294 1.28 1.28 0 01-.144-.468 4.958 4.958 0 01-.044-.487 9.727 9.727 0 01.007-.576c.008-.249.012-.417.012-.505 0-.304.007-.634.019-.99l.031-.847c.009-.208.013-.429.013-.66a2.67 2.67 0 00-.044-.547 1.817 1.817 0 00-.131-.385.655.655 0 00-.256-.288 1.479 1.479 0 00-.419-.162c-.441-.096-1.004-.148-1.687-.156-1.55-.016-2.545.08-2.986.288a1.675 1.675 0 00-.475.36c-.15.176-.171.273-.063.288.5.072.854.245 1.062.517l.075.144c.059.104.117.288.175.553.059.264.096.556.113.876a8.987 8.987 0 010 1.502c-.042.416-.081.74-.119.972a1.89 1.89 0 01-.169.565 2.34 2.34 0 01-.15.264.213.213 0 01-.062.06.971.971 0 01-.337.06c-.117 0-.259-.056-.425-.168a2.958 2.958 0 01-.519-.462 6.193 6.193 0 01-.606-.823 14.177 14.177 0 01-.7-1.25l-.2-.348c-.124-.224-.295-.55-.512-.978a18.512 18.512 0 01-.575-1.244.796.796 0 00-.3-.384l-.062-.036a.867.867 0 00-.2-.102 1.368 1.368 0 00-.287-.078L.8 6.602c-.35 0-.587.076-.712.228l-.05.072A.376.376 0 000 7.094a.93.93 0 00.075.325 38.99 38.99 0 001.63 3.266c.588 1.05 1.098 1.894 1.531 2.534.433.641.875 1.246 1.325 1.814.45.569.748.933.893 1.093.146.16.26.28.344.36l.312.288c.2.193.494.423.881.691.388.268.817.533 1.287.793a7.15 7.15 0 001.644.636 5.9 5.9 0 001.824.199h1.437c.292-.024.512-.113.662-.265l.05-.06a.782.782 0 00.094-.222c.029-.1.044-.21.044-.33a3.806 3.806 0 01.08-.93c.063-.277.134-.485.213-.625a1.54 1.54 0 01.482-.529.844.844 0 01.1-.042c.2-.064.434-.002.706.187.27.188.524.42.762.696.237.277.522.587.856.931.333.345.625.6.874.769l.25.144c.167.096.384.184.65.264.266.08.5.1.7.06l3.199-.048c.316 0 .562-.05.737-.15.175-.1.279-.21.312-.33a.895.895 0 00.007-.409 1.456 1.456 0 00-.088-.318z" fill="#fff"/></g><defs><clipPath id="clip0_312_484"><path fill="#fff" d="M0 0h24v24H0z"/></clipPath></defs></svg>