<svg width="26" height="27" fill="none" xmlns="http://www.w3.org/2000/svg"><path d="M13.542 1.854a.812.812 0 10-1.625 0v9.414L6.985 6.334a.813.813 0 10-1.15 1.148l4.934 4.935H1.354a.813.813 0 000 1.625h9.415l-4.934 4.932a.812.812 0 001.148 1.15l4.934-4.933v9.413a.813.813 0 101.625 0V15.19l4.932 4.934a.812.812 0 001.15-1.149l-4.933-4.933h9.414a.813.813 0 000-1.625H14.69l4.934-4.933a.811.811 0 00-.571-1.397.813.813 0 00-.578.248l-4.933 4.932V1.854z" fill="url(#paint0_linear_312_107)"/><defs><linearGradient id="paint0_linear_312_107" x1=".542" y1="24.447" x2="27.699" y2="20.58" gradientUnits="userSpaceOnUse"><stop stop-color="#53E8A8"/><stop offset=".516" stop-color="#A3FAA6"/><stop offset="1" stop-color="#BEFEAA"/></linearGradient></defs></svg>