<svg width="11" height="11" fill="none" xmlns="http://www.w3.org/2000/svg"><g clip-path="url(#clip0_312_125)"><path d="M5.73.573a.344.344 0 10-.688 0v3.983L2.955 2.468a.344.344 0 10-.486.486l2.087 2.088H.573a.344.344 0 100 .687h3.983L2.47 7.816a.344.344 0 00.486.486l2.087-2.086v3.982a.344.344 0 00.687 0V6.215l2.087 2.087a.344.344 0 00.487-.486L6.216 5.73h3.982a.344.344 0 000-.687H6.215l2.088-2.087a.344.344 0 10-.486-.486L5.729 4.555V.573z" fill="#fff" fill-opacity=".5"/></g><defs><clipPath id="clip0_312_125"><path fill="#fff" d="M0 0h11v11H0z"/></clipPath></defs></svg>