<svg width="25" height="24" fill="none" xmlns="http://www.w3.org/2000/svg"><path d="M9.735 3.747c.908-1.56 1.363-2.34 1.954-2.602a2 2 0 011.622 0c.591.263 1.046 1.043 1.954 2.602l1.051 1.805c.262.449.392.673.568.852a2 2 0 00.535.388c.224.112.477.167.985.277l2.041.442c1.764.382 2.646.573 3.079 1.055a2 2 0 01.5 1.542c-.066.644-.667 1.317-1.87 2.663l-1.391 1.557c-.346.387-.52.58-.635.803-.103.197-.172.41-.204.629-.037.247-.011.506.041 1.022l.21 2.078c.182 1.796.273 2.694-.051 3.254a2 2 0 01-1.312.953c-.633.136-1.459-.228-3.11-.956l-1.912-.842c-.475-.21-.713-.314-.96-.356a1.998 1.998 0 00-.66 0c-.247.041-.485.146-.96.356l-1.911.842c-1.652.728-2.478 1.092-3.111.956a2 2 0 01-1.312-.953c-.324-.56-.233-1.458-.052-3.254l.21-2.078c.053-.516.08-.775.042-1.022a2 2 0 00-.204-.63c-.116-.221-.289-.415-.635-.802L2.846 12.77c-1.203-1.346-1.804-2.02-1.87-2.663a2 2 0 01.5-1.542c.433-.482 1.315-.673 3.079-1.055l2.04-.442c.509-.11.762-.165.986-.277a2 2 0 00.535-.388c.176-.179.306-.403.568-.852l1.05-1.805z" fill="url(#paint0_linear_312_286)"/><defs><linearGradient id="paint0_linear_312_286" x1="12.5" y1="-1" x2="12.5" y2="27" gradientUnits="userSpaceOnUse"><stop stop-color="#F7E150"/><stop offset="1" stop-color="#FF9641"/></linearGradient></defs></svg>