<svg width="24" height="24" fill="none" xmlns="http://www.w3.org/2000/svg"><path fill-rule="evenodd" clip-rule="evenodd" d="M3 21.8h9c5.413 0 9.8-4.388 9.8-9.8 0-5.412-4.387-9.8-9.8-9.8-5.412 0-9.8 4.387-9.8 9.8 0 1.435.309 2.8.865 4.03.202.448.345.766.445 1.005.104.253.13.353.136.384.02.13.023.18.022.212 0 .033-.005.082-.03.212-.027.13-.11.313-.439.97l-.914 1.83A.8.8 0 003 21.8zm9-8.8a1 1 0 11.001-2 1 1 0 010 2zm3-1a1 1 0 102.001 0 1 1 0 00-2 0zm-7 1a1 1 0 11.001-2 1 1 0 010 2z" fill="#fff"/></svg>