<svg width="24" height="24" fill="none" xmlns="http://www.w3.org/2000/svg"><path fill-rule="evenodd" clip-rule="evenodd" d="M9.95 7.249A4.55 4.55 0 1114.5 11.8h-.029a4.537 4.537 0 01-4.52-4.551zm0 0v-.002.003-.001z" fill="#fff"/><path d="M14.5 13.2c-1.884 0-3.647.46-4.965 1.205-1.277.72-2.335 1.838-2.335 3.222 0 .715.294 1.308.778 1.758.461.428 1.075.71 1.728.907 1.304.39 3.027.508 4.794.508 1.778 0 3.502-.122 4.805-.518.652-.199 1.264-.485 1.722-.915a2.351 2.351 0 00.773-1.758c0-1.386-1.067-2.499-2.344-3.214-1.32-.74-3.083-1.195-4.956-1.195zm-6.067-10a4.05 4.05 0 00-4.051 4.049v.001-.003.002A4.04 4.04 0 008.407 11.3h.026a.8.8 0 000-1.6H8.41a2.44 2.44 0 01-2.43-2.448l.001-.003a2.45 2.45 0 012.45-2.45.8.8 0 100-1.6zM6.166 15.62a.8.8 0 00-.467-1.53c-.946.29-1.79.729-2.414 1.287-.618.553-1.085 1.289-1.085 2.147 0 .917.533 1.555 1.222 1.95.655.377 1.513.58 2.41.694a.8.8 0 10.202-1.587c-.826-.105-1.434-.275-1.815-.494-.347-.2-.419-.378-.419-.563 0-.248.137-.583.552-.955.411-.368 1.033-.71 1.814-.948z" fill="#fff"/></svg>