<svg width="24" height="24" fill="none" xmlns="http://www.w3.org/2000/svg"><path fill-rule="evenodd" clip-rule="evenodd" d="M12 3.7c-3.758 0-6.342 1.621-7.973 3.456-.81.91-1.384 1.873-1.758 2.714-.364.819-.569 1.594-.569 2.13 0 .536.205 1.311.57 2.13.373.841.948 1.803 1.757 2.714C5.658 18.679 8.242 20.3 12 20.3s6.342-1.621 7.973-3.456a10.64 10.64 0 001.758-2.714c.364-.819.57-1.594.57-2.13 0-.536-.206-1.311-.57-2.13a10.64 10.64 0 00-1.758-2.714C18.343 5.321 15.758 3.7 12 3.7zM12 9a3 3 0 110 6 3 3 0 010-6z" fill="#fff" fill-opacity=".64"/></svg>