<svg width="24" height="24" fill="none" xmlns="http://www.w3.org/2000/svg"><path fill-rule="evenodd" clip-rule="evenodd" d="M12 2.2c-3.516 0-6.068.487-7.69 2.11C2.688 5.93 2.2 8.482 2.2 12c0 3.523.509 6.072 2.14 7.693C5.972 21.312 8.52 21.8 12 21.8c3.482 0 6.03-.488 7.66-2.107 1.632-1.62 2.14-4.17 2.14-7.693 0-3.517-.487-6.069-2.11-7.69C18.07 2.686 15.518 2.2 12 2.2zm3.566 7.434a.8.8 0 010 1.132l-4 4a.8.8 0 01-1.132 0l-2-2a.8.8 0 111.132-1.132L11 13.07l3.434-3.435a.8.8 0 011.132 0z" fill="#fff"/></svg>